<svg fill="#1F8A70" role="img" viewBox="0 0 24 24" xmlns="http://www.w3.org/2000/svg"><title>Latitude.sh provider</title><path d="M12 1.2C6.04 1.2 1.2 6.04 1.2 12S6.04 22.8 12 22.8 22.8 17.96 22.8 12 17.96 1.2 12 1.2zm0 1.8a9 9 0 0 1 5.62 1.97c-.92.3-1.96.54-3.08.7A14.6 14.6 0 0 0 12.9 3.04 9 9 0 0 1 12 3zm-1.9.23a13 13 0 0 1 1.5 2.43c-.53.03-1.06.04-1.6.04s-1.07-.01-1.6-.04A9.05 9.05 0 0 1 10.1 3.23zM6.4 4.97c.43.16.9.3 1.4.43-.18.5-.34 1.02-.47 1.57a9.1 9.1 0 0 1-.93-2zM3.6 7.86c.74.3 1.56.56 2.45.76A19 19 0 0 0 5.74 11H3.06a8.9 8.9 0 0 1 .54-3.14zM3.06 13h2.68c.06 1.5.27 2.92.6 4.2A14.6 14.6 0 0 0 3.6 16.14 8.9 8.9 0 0 1 3.06 13zm3.34 6.03c.27-.74.6-1.43.97-2.06.14.55.3 1.07.48 1.57-.5.13-.97.32-1.45.49zm3.5.74a13 13 0 0 1-1.5-2.43c.53-.03 1.06-.04 1.6-.04s1.07.01 1.6.04a13 13 0 0 1-1.7 2.43zm5.7-.74c-.48-.17-.95-.36-1.45-.49.18-.5.34-1.02.48-1.57.37.63.7 1.32.97 2.06zm2.8-2.89a14.6 14.6 0 0 0-2.34.86c.33-1.28.54-2.7.6-4.2h2.68a8.9 8.9 0 0 1-.94 3.34zM18.26 11a19 19 0 0 0-.31-2.38c.89-.2 1.71-.46 2.45-.76A8.9 8.9 0 0 1 20.94 11zM7.86 13h8.28c-.07 1.6-.32 3.1-.72 4.4a23 23 0 0 0-6.84 0 19 19 0 0 1-.72-4.4zm0-2c.07-1.6.32-3.1.72-4.4a23 23 0 0 0 6.84 0c.4 1.3.65 2.8.72 4.4z"/></svg>
